<mxfile host="app.diagrams.net" modified="2023-06-26T08:31:59.787Z" agent="Mozilla/5.0 (Macintosh; Intel Mac OS X 10_15_7) AppleWebKit/537.36 (KHTML, like Gecko) Chrome/114.0.0.0 Safari/537.36" etag="P7cm6RXimQh_QwJjp1z_" version="21.5.0" type="github">
  <diagram id="C5RBs43oDa-KdzZeNtuy" name="Page-1">
    <mxGraphModel dx="1251" dy="811" grid="1" gridSize="10" guides="1" tooltips="1" connect="1" arrows="1" fold="1" page="1" pageScale="1" pageWidth="827" pageHeight="1169" math="0" shadow="0">
      <root>
        <mxCell id="WIyWlLk6GJQsqaUBKTNV-0" />
        <mxCell id="WIyWlLk6GJQsqaUBKTNV-1" parent="WIyWlLk6GJQsqaUBKTNV-0" />
        <mxCell id="DjTxpWOGwAWJWIYAV4uO-6" style="edgeStyle=orthogonalEdgeStyle;rounded=0;orthogonalLoop=1;jettySize=auto;html=1;entryX=0.5;entryY=0;entryDx=0;entryDy=0;" edge="1" parent="WIyWlLk6GJQsqaUBKTNV-1" source="DjTxpWOGwAWJWIYAV4uO-0" target="DjTxpWOGwAWJWIYAV4uO-5">
          <mxGeometry relative="1" as="geometry" />
        </mxCell>
        <mxCell id="DjTxpWOGwAWJWIYAV4uO-0" value="DumpHbaseTrigger&lt;br&gt;开始" style="rounded=1;whiteSpace=wrap;html=1;" vertex="1" parent="WIyWlLk6GJQsqaUBKTNV-1">
          <mxGeometry x="210" y="130" width="120" height="40" as="geometry" />
        </mxCell>
        <mxCell id="DjTxpWOGwAWJWIYAV4uO-11" value="" style="edgeStyle=orthogonalEdgeStyle;rounded=0;orthogonalLoop=1;jettySize=auto;html=1;" edge="1" parent="WIyWlLk6GJQsqaUBKTNV-1" source="DjTxpWOGwAWJWIYAV4uO-5" target="DjTxpWOGwAWJWIYAV4uO-10">
          <mxGeometry relative="1" as="geometry" />
        </mxCell>
        <mxCell id="DjTxpWOGwAWJWIYAV4uO-5" value="ScheduleDumpTask" style="rounded=0;whiteSpace=wrap;html=1;" vertex="1" parent="WIyWlLk6GJQsqaUBKTNV-1">
          <mxGeometry x="210" y="250" width="120" height="50" as="geometry" />
        </mxCell>
        <mxCell id="DjTxpWOGwAWJWIYAV4uO-8" style="edgeStyle=orthogonalEdgeStyle;rounded=0;orthogonalLoop=1;jettySize=auto;html=1;exitX=1;exitY=0.5;exitDx=0;exitDy=0;entryX=0.5;entryY=0;entryDx=0;entryDy=0;" edge="1" parent="WIyWlLk6GJQsqaUBKTNV-1" source="DjTxpWOGwAWJWIYAV4uO-7" target="DjTxpWOGwAWJWIYAV4uO-5">
          <mxGeometry relative="1" as="geometry" />
        </mxCell>
        <mxCell id="DjTxpWOGwAWJWIYAV4uO-7" value="config" style="triangle;whiteSpace=wrap;html=1;" vertex="1" parent="WIyWlLk6GJQsqaUBKTNV-1">
          <mxGeometry x="150" y="170" width="60" height="80" as="geometry" />
        </mxCell>
        <mxCell id="DjTxpWOGwAWJWIYAV4uO-15" style="edgeStyle=orthogonalEdgeStyle;rounded=0;orthogonalLoop=1;jettySize=auto;html=1;" edge="1" parent="WIyWlLk6GJQsqaUBKTNV-1" source="DjTxpWOGwAWJWIYAV4uO-10" target="DjTxpWOGwAWJWIYAV4uO-14">
          <mxGeometry relative="1" as="geometry" />
        </mxCell>
        <mxCell id="DjTxpWOGwAWJWIYAV4uO-10" value="RegionDumpServiceTask" style="shape=process;whiteSpace=wrap;html=1;backgroundOutline=1;rounded=0;" vertex="1" parent="WIyWlLk6GJQsqaUBKTNV-1">
          <mxGeometry x="180" y="350" width="180" height="60" as="geometry" />
        </mxCell>
        <mxCell id="DjTxpWOGwAWJWIYAV4uO-13" value="" style="curved=1;endArrow=classic;html=1;rounded=0;entryX=0.833;entryY=0;entryDx=0;entryDy=0;entryPerimeter=0;" edge="1" parent="WIyWlLk6GJQsqaUBKTNV-1" target="DjTxpWOGwAWJWIYAV4uO-5">
          <mxGeometry width="50" height="50" relative="1" as="geometry">
            <mxPoint x="330" y="280" as="sourcePoint" />
            <mxPoint x="380" y="230" as="targetPoint" />
            <Array as="points">
              <mxPoint x="360" y="275" />
              <mxPoint x="370" y="250" />
              <mxPoint x="360" y="230" />
              <mxPoint x="330" y="230" />
            </Array>
          </mxGeometry>
        </mxCell>
        <mxCell id="DjTxpWOGwAWJWIYAV4uO-14" value="done" style="rounded=1;whiteSpace=wrap;html=1;" vertex="1" parent="WIyWlLk6GJQsqaUBKTNV-1">
          <mxGeometry x="225" y="545" width="90" height="40" as="geometry" />
        </mxCell>
        <mxCell id="DjTxpWOGwAWJWIYAV4uO-25" style="edgeStyle=orthogonalEdgeStyle;rounded=0;orthogonalLoop=1;jettySize=auto;html=1;entryX=0.5;entryY=0;entryDx=0;entryDy=0;" edge="1" parent="WIyWlLk6GJQsqaUBKTNV-1" source="DjTxpWOGwAWJWIYAV4uO-16" target="DjTxpWOGwAWJWIYAV4uO-18">
          <mxGeometry relative="1" as="geometry" />
        </mxCell>
        <mxCell id="DjTxpWOGwAWJWIYAV4uO-16" value="Hbase&lt;br&gt;开始" style="rounded=1;whiteSpace=wrap;html=1;" vertex="1" parent="WIyWlLk6GJQsqaUBKTNV-1">
          <mxGeometry x="545" y="270" width="100" height="50" as="geometry" />
        </mxCell>
        <mxCell id="DjTxpWOGwAWJWIYAV4uO-27" value="" style="edgeStyle=orthogonalEdgeStyle;rounded=0;orthogonalLoop=1;jettySize=auto;html=1;" edge="1" parent="WIyWlLk6GJQsqaUBKTNV-1" source="DjTxpWOGwAWJWIYAV4uO-18" target="DjTxpWOGwAWJWIYAV4uO-26">
          <mxGeometry relative="1" as="geometry" />
        </mxCell>
        <mxCell id="DjTxpWOGwAWJWIYAV4uO-18" value="DumpHbaseService" style="rounded=0;whiteSpace=wrap;html=1;" vertex="1" parent="WIyWlLk6GJQsqaUBKTNV-1">
          <mxGeometry x="535" y="360" width="120" height="40" as="geometry" />
        </mxCell>
        <mxCell id="DjTxpWOGwAWJWIYAV4uO-21" value="" style="endArrow=classic;html=1;rounded=0;exitX=1;exitY=0.5;exitDx=0;exitDy=0;entryX=0;entryY=0.5;entryDx=0;entryDy=0;" edge="1" parent="WIyWlLk6GJQsqaUBKTNV-1" source="DjTxpWOGwAWJWIYAV4uO-10" target="DjTxpWOGwAWJWIYAV4uO-18">
          <mxGeometry relative="1" as="geometry">
            <mxPoint x="380" y="440" as="sourcePoint" />
            <mxPoint x="480" y="440" as="targetPoint" />
          </mxGeometry>
        </mxCell>
        <mxCell id="DjTxpWOGwAWJWIYAV4uO-22" value="coprocessorService&lt;br&gt;&amp;lt;DumpHbaseService.class&amp;gt;" style="edgeLabel;resizable=0;html=1;align=center;verticalAlign=middle;" connectable="0" vertex="1" parent="DjTxpWOGwAWJWIYAV4uO-21">
          <mxGeometry relative="1" as="geometry" />
        </mxCell>
        <mxCell id="DjTxpWOGwAWJWIYAV4uO-29" value="" style="edgeStyle=orthogonalEdgeStyle;rounded=0;orthogonalLoop=1;jettySize=auto;html=1;" edge="1" parent="WIyWlLk6GJQsqaUBKTNV-1" source="DjTxpWOGwAWJWIYAV4uO-26" target="DjTxpWOGwAWJWIYAV4uO-28">
          <mxGeometry relative="1" as="geometry" />
        </mxCell>
        <mxCell id="DjTxpWOGwAWJWIYAV4uO-26" value="dumpHbaseFile()" style="whiteSpace=wrap;html=1;rounded=0;" vertex="1" parent="WIyWlLk6GJQsqaUBKTNV-1">
          <mxGeometry x="535" y="430" width="120" height="40" as="geometry" />
        </mxCell>
        <mxCell id="DjTxpWOGwAWJWIYAV4uO-30" style="edgeStyle=orthogonalEdgeStyle;rounded=0;orthogonalLoop=1;jettySize=auto;html=1;exitX=0;exitY=0.5;exitDx=0;exitDy=0;entryX=0.5;entryY=0;entryDx=0;entryDy=0;" edge="1" parent="WIyWlLk6GJQsqaUBKTNV-1" source="DjTxpWOGwAWJWIYAV4uO-28" target="DjTxpWOGwAWJWIYAV4uO-14">
          <mxGeometry relative="1" as="geometry" />
        </mxCell>
        <mxCell id="DjTxpWOGwAWJWIYAV4uO-28" value="DumpHbaseTask.run()" style="whiteSpace=wrap;html=1;rounded=0;" vertex="1" parent="WIyWlLk6GJQsqaUBKTNV-1">
          <mxGeometry x="530" y="500" width="130" height="40" as="geometry" />
        </mxCell>
        <mxCell id="DjTxpWOGwAWJWIYAV4uO-31" value="" style="endArrow=none;dashed=1;html=1;dashPattern=1 3;strokeWidth=2;rounded=0;" edge="1" parent="WIyWlLk6GJQsqaUBKTNV-1">
          <mxGeometry width="50" height="50" relative="1" as="geometry">
            <mxPoint x="440" y="590" as="sourcePoint" />
            <mxPoint x="440" y="80" as="targetPoint" />
          </mxGeometry>
        </mxCell>
        <mxCell id="DjTxpWOGwAWJWIYAV4uO-32" value="Dumper 机器" style="text;html=1;strokeColor=none;fillColor=none;align=center;verticalAlign=middle;whiteSpace=wrap;rounded=0;" vertex="1" parent="WIyWlLk6GJQsqaUBKTNV-1">
          <mxGeometry x="230" y="80" width="90" height="30" as="geometry" />
        </mxCell>
        <mxCell id="DjTxpWOGwAWJWIYAV4uO-33" value="Hbase 集群" style="text;html=1;align=center;verticalAlign=middle;resizable=0;points=[];autosize=1;strokeColor=none;fillColor=none;" vertex="1" parent="WIyWlLk6GJQsqaUBKTNV-1">
          <mxGeometry x="545" y="90" width="90" height="30" as="geometry" />
        </mxCell>
      </root>
    </mxGraphModel>
  </diagram>
</mxfile>
